<svg width="297" height="297" viewBox="0 0 297 297" fill="none" xmlns="http://www.w3.org/2000/svg">
<path d="M69.6094 55.6875C72.1723 55.6875 74.25 53.6098 74.25 51.0469C74.25 48.4839 72.1723 46.4062 69.6094 46.4062C67.0464 46.4062 64.9688 48.4839 64.9688 51.0469C64.9688 53.6098 67.0464 55.6875 69.6094 55.6875Z" fill="#808080"/>
<path d="M51.0469 55.6875C53.6098 55.6875 55.6875 53.6098 55.6875 51.0469C55.6875 48.4839 53.6098 46.4062 51.0469 46.4062C48.4839 46.4062 46.4062 48.4839 46.4062 51.0469C46.4062 53.6098 48.4839 55.6875 51.0469 55.6875Z" fill="#808080"/>
<path d="M32.4844 55.6875C35.0473 55.6875 37.125 53.6098 37.125 51.0469C37.125 48.4839 35.0473 46.4062 32.4844 46.4062C29.9214 46.4062 27.8438 48.4839 27.8438 51.0469C27.8438 53.6098 29.9214 55.6875 32.4844 55.6875Z" fill="#808080"/>
<path d="M283.078 74.25H13.9219C11.3603 74.25 9.28125 72.171 9.28125 69.6094C9.28125 67.0478 11.3603 64.9688 13.9219 64.9688H283.078C285.64 64.9688 287.719 67.0478 287.719 69.6094C287.719 72.171 285.64 74.25 283.078 74.25Z" fill="#808080"/>
<path d="M273.797 269.156H23.2031C15.5275 269.156 9.28125 262.91 9.28125 255.234V41.7656C9.28125 34.09 15.5275 27.8438 23.2031 27.8438H273.797C281.472 27.8438 287.719 34.09 287.719 41.7656V255.234C287.719 262.91 281.472 269.156 273.797 269.156ZM23.2031 37.125C20.6415 37.125 18.5625 39.2133 18.5625 41.7656V255.234C18.5625 257.787 20.6415 259.875 23.2031 259.875H273.797C276.358 259.875 278.438 257.787 278.438 255.234V41.7656C278.438 39.2133 276.358 37.125 273.797 37.125H23.2031Z" fill="#808080"/>
<path d="M227.39 222.75C224.829 222.75 222.75 220.671 222.75 218.109V194.906H190.265C188.753 194.906 187.342 194.173 186.469 192.939C185.597 191.704 185.384 190.126 185.894 188.706L209.097 123.738C209.756 121.891 211.51 120.656 213.469 120.656H227.39C229.952 120.656 232.031 122.735 232.031 125.297V185.625H236.672C239.233 185.625 241.312 187.704 241.312 190.266C241.312 192.827 239.233 194.906 236.672 194.906H232.031V218.109C232.031 220.671 229.952 222.75 227.39 222.75ZM196.846 185.625H222.75V129.938H216.745L196.846 185.625Z" fill="#808080"/>
<path d="M97.4529 222.75C94.8913 222.75 92.8123 220.671 92.8123 218.109V194.906H60.3279C58.8151 194.906 57.4043 194.173 56.5319 192.939C55.6595 191.704 55.446 190.126 55.9565 188.706L79.1596 123.738C79.8186 121.891 81.5727 120.656 83.5311 120.656H97.4529C100.015 120.656 102.094 122.735 102.094 125.297V185.625H106.734C109.296 185.625 111.375 187.704 111.375 190.266C111.375 192.827 109.296 194.906 106.734 194.906H102.094V218.109C102.094 220.671 100.015 222.75 97.4529 222.75ZM66.9083 185.625H92.8123V129.938H86.8073L66.9083 185.625Z" fill="#808080"/>
<path d="M162.422 222.75H134.578C126.903 222.75 120.656 216.504 120.656 208.828V134.578C120.656 126.903 126.903 120.656 134.578 120.656H162.422C170.097 120.656 176.344 126.903 176.344 134.578V208.828C176.344 216.504 170.097 222.75 162.422 222.75ZM134.578 129.938C132.017 129.938 129.938 132.026 129.938 134.578V208.828C129.938 211.38 132.017 213.469 134.578 213.469H162.422C164.983 213.469 167.062 211.38 167.062 208.828V134.578C167.062 132.026 164.983 129.938 162.422 129.938H134.578Z" fill="#808080"/>
</svg>
