<svg width="10" height="10" viewBox="0 0 10 10" fill="none" xmlns="http://www.w3.org/2000/svg">
<path d="M2.20801 7.79171C2.29134 7.87504 2.37467 7.91671 2.49967 7.91671C2.62467 7.91671 2.70801 7.87504 2.79134 7.79171L4.99967 5.58337L7.20801 7.79171C7.29134 7.87504 7.41634 7.91671 7.49967 7.91671C7.58301 7.91671 7.70801 7.87504 7.79134 7.79171C7.95801 7.62504 7.95801 7.37504 7.79134 7.20837L5.58301 5.00004L7.79134 2.79171C7.95801 2.62504 7.95801 2.37504 7.79134 2.20837C7.62468 2.04171 7.37467 2.04171 7.20801 2.20837L4.99967 4.41671L2.79134 2.20837C2.62467 2.04171 2.37467 2.04171 2.20801 2.20837C2.04134 2.37504 2.04134 2.62504 2.20801 2.79171L4.41634 5.00004L2.20801 7.20837C2.04134 7.37504 2.04134 7.62504 2.20801 7.79171Z" fill="#808080"/>
</svg>
