<svg width="8" height="8" viewBox="0 0 8 8" fill="none" xmlns="http://www.w3.org/2000/svg">
<g clip-path="url(#clip0_657_233)">
<path d="M1.3778 0.777799L0.777799 1.3778C0.622244 1.53335 0.622244 1.80002 0.777799 1.9778L2.82224 4.02224L0.777799 6.06669C0.622244 6.22224 0.622244 6.48891 0.777799 6.66669L1.35558 7.24446C1.51113 7.40002 1.7778 7.40002 1.95558 7.24446L4.00002 5.20002L6.04447 7.24446C6.20002 7.40002 6.46669 7.40002 6.64447 7.24446L7.22224 6.66669C7.3778 6.51113 7.3778 6.24447 7.22224 6.06669L5.1778 4.00002L7.22224 1.95558C7.3778 1.80002 7.3778 1.53335 7.22224 1.35558L6.64447 0.777799C6.48891 0.622244 6.22224 0.622244 6.04447 0.777799L4.00002 2.82224L1.95558 0.777799C1.80002 0.622244 1.53336 0.622244 1.3778 0.777799Z" fill="#808080"/>
</g>
<defs>
<clipPath id="clip0_657_233">
<rect width="8" height="8" fill="white"/>
</clipPath>
</defs>
</svg>
