<svg width="16" height="13" viewBox="0 0 16 13" fill="none" xmlns="http://www.w3.org/2000/svg">
<path d="M6.90625 8.125L6.90625 6.5" stroke="#808080" stroke-linecap="round"/>
<path d="M9.29883 8.125L9.29883 6.5" stroke="#808080" stroke-linecap="round"/>
<path d="M2.71875 3.79167H13.4862V3.79167C12.4951 3.79167 11.6917 4.59513 11.6917 5.58625V7.3125C11.6917 8.73681 11.6917 9.44897 11.3455 9.95804C11.2039 10.1661 11.0244 10.3456 10.8164 10.4871C10.3073 10.8333 9.59514 10.8333 8.17082 10.8333H8.03416C6.60985 10.8333 5.89769 10.8333 5.38862 10.4871C5.18055 10.3456 5.00105 10.1661 4.85954 9.95804C4.51333 9.44897 4.51333 8.73681 4.51333 7.3125V5.58625C4.51333 4.59513 3.70987 3.79167 2.71875 3.79167V3.79167Z" stroke="#808080" stroke-linecap="round"/>
<path d="M6.94682 1.82574C7.01498 1.76815 7.16518 1.71726 7.37413 1.68097C7.58307 1.64467 7.83907 1.625 8.10244 1.625C8.36581 1.625 8.62181 1.64467 8.83075 1.68097C9.0397 1.71726 9.1899 1.76815 9.25806 1.82574" stroke="#808080" stroke-linecap="round"/>
</svg>
