<svg width="25" height="25" viewBox="0 0 25 25" fill="none" xmlns="http://www.w3.org/2000/svg">
<path d="M14.2323 21.9697C14.095 21.9696 13.9605 21.931 13.8441 21.8581C13.7277 21.7852 13.6342 21.6811 13.5741 21.5576L10.1317 14.481L3.05506 11.0391C2.92758 10.9769 2.82088 10.8791 2.74792 10.7575C2.67496 10.6359 2.63887 10.4957 2.64404 10.354C2.64921 10.2123 2.69542 10.0751 2.77705 9.95912C2.85868 9.84315 2.97222 9.75337 3.10389 9.70069L21.2636 2.39649C21.3968 2.34278 21.5429 2.32945 21.6837 2.35815C21.8245 2.38685 21.9537 2.45632 22.0553 2.55791C22.1569 2.65949 22.2263 2.78872 22.255 2.92949C22.2837 3.07026 22.2704 3.21636 22.2167 3.34961L14.912 21.5107C14.859 21.6423 14.769 21.7557 14.6529 21.8371C14.5367 21.9185 14.3994 21.9644 14.2577 21.9692L14.2323 21.9697ZM5.18055 10.4463L10.9999 13.2783C11.1474 13.3501 11.2665 13.4692 11.3383 13.6167L14.1703 19.436L20.2147 4.39454L5.18055 10.4463Z" fill="#808080"/>
<path d="M10.6795 14.6655C10.5347 14.6655 10.3931 14.6225 10.2726 14.542C10.1522 14.4615 10.0583 14.3471 10.0029 14.2132C9.94754 14.0794 9.93308 13.9321 9.96138 13.79C9.98968 13.6479 10.0595 13.5174 10.162 13.415L21.0189 2.55811C21.0869 2.49011 21.1677 2.43617 21.2566 2.39938C21.3454 2.36259 21.4407 2.34367 21.5369 2.34369C21.6331 2.34371 21.7283 2.36268 21.8172 2.39951C21.906 2.43634 21.9868 2.49032 22.0548 2.55835C22.1228 2.62638 22.1767 2.70715 22.2135 2.79602C22.2503 2.8849 22.2692 2.98015 22.2692 3.07635C22.2692 3.17254 22.2502 3.26778 22.2134 3.35664C22.1765 3.4455 22.1226 3.52624 22.0545 3.59424L11.1976 14.4531C11.0599 14.5897 10.8735 14.6661 10.6795 14.6655Z" fill="#808080"/>
</svg>
