<svg width="20" height="20" viewBox="0 0 20 20" fill="none" xmlns="http://www.w3.org/2000/svg">
<path d="M9.93109 11.7971C9.44751 11.7971 8.98374 11.605 8.6418 11.263C8.29986 10.9211 8.10776 10.4573 8.10776 9.97374C8.10776 9.49016 8.29986 9.02639 8.6418 8.68445C8.98374 8.34251 9.44751 8.15041 9.93109 8.15041C10.4147 8.15041 10.8784 8.34251 11.2204 8.68445C11.5623 9.02639 11.7544 9.49016 11.7544 9.97374C11.7544 10.4573 11.5623 10.9211 11.2204 11.263C10.8784 11.605 10.4147 11.7971 9.93109 11.7971ZM9.93109 6.32708C9.44751 6.32708 8.98374 6.13498 8.6418 5.79304C8.29986 5.4511 8.10776 4.98733 8.10776 4.50375C8.10776 4.02017 8.29986 3.5564 8.6418 3.21446C8.98374 2.87252 9.44751 2.68042 9.93109 2.68042C10.4147 2.68042 10.8784 2.87252 11.2204 3.21446C11.5623 3.5564 11.7544 4.02017 11.7544 4.50375C11.7544 4.98733 11.5623 5.4511 11.2204 5.79304C10.8784 6.13498 10.4147 6.32708 9.93109 6.32708ZM9.93109 17.2671C9.44751 17.2671 8.98374 17.075 8.6418 16.733C8.29986 16.3911 8.10776 15.9273 8.10776 15.4437C8.10776 14.9602 8.29986 14.4964 8.6418 14.1544C8.98374 13.8125 9.44751 13.6204 9.93109 13.6204C10.4147 13.6204 10.8784 13.8125 11.2204 14.1544C11.5623 14.4964 11.7544 14.9602 11.7544 15.4437C11.7544 15.9273 11.5623 16.3911 11.2204 16.733C10.8784 17.075 10.4147 17.2671 9.93109 17.2671Z" fill="#808080"/>
</svg>
