<svg width="19" height="18" viewBox="0 0 19 18" fill="none" xmlns="http://www.w3.org/2000/svg">
<path d="M11.083 0C12.1328 0 13.1396 0.395088 13.882 1.09835C14.6243 1.80161 15.0413 2.75544 15.0413 3.75V12.75C15.0413 13.4394 14.898 14.1221 14.6195 14.7591C14.341 15.396 13.9328 15.9748 13.4182 16.4623C12.9036 16.9498 12.2927 17.3365 11.6204 17.6004C10.948 17.8642 10.2274 18 9.49967 18C8.77193 18 8.05132 17.8642 7.37897 17.6004C6.70662 17.3365 6.09572 16.9498 5.58112 16.4623C5.06653 15.9748 4.65834 15.396 4.37984 14.7591C4.10135 14.1221 3.95801 13.4394 3.95801 12.75V6.75H5.54134V12.75C5.54134 13.7446 5.95838 14.6984 6.70071 15.4017C7.44304 16.1049 8.44986 16.5 9.49967 16.5C10.5495 16.5 11.5563 16.1049 12.2986 15.4017C13.041 14.6984 13.458 13.7446 13.458 12.75V3.75C13.458 3.45453 13.3966 3.16194 13.2772 2.88896C13.1579 2.61598 12.9829 2.36794 12.7624 2.15901C12.5418 1.95008 12.28 1.78434 11.9919 1.67127C11.7037 1.5582 11.3949 1.5 11.083 1.5C10.7711 1.5 10.4623 1.5582 10.1741 1.67127C9.88599 1.78434 9.62417 1.95008 9.40363 2.15901C9.18309 2.36794 9.00815 2.61598 8.88879 2.88896C8.76944 3.16194 8.70801 3.45453 8.70801 3.75V12.75C8.70801 12.9489 8.79142 13.1397 8.93988 13.2803C9.08835 13.421 9.28971 13.5 9.49967 13.5C9.70964 13.5 9.911 13.421 10.0595 13.2803C10.2079 13.1397 10.2913 12.9489 10.2913 12.75V4.5H11.8747V12.75C11.8747 13.3467 11.6245 13.919 11.1791 14.341C10.7337 14.7629 10.1296 15 9.49967 15C8.86978 15 8.26569 14.7629 7.8203 14.341C7.3749 13.919 7.12467 13.3467 7.12467 12.75V3.75C7.12467 2.75544 7.54171 1.80161 8.28404 1.09835C9.02637 0.395088 10.0332 0 11.083 0Z" fill="#808080"/>
</svg>
