<svg width="15" height="13" viewBox="0 0 15 13" fill="none" xmlns="http://www.w3.org/2000/svg">
<path fill-rule="evenodd" clip-rule="evenodd" d="M7.50927 4.30354L2.95941 8.42292C2.71714 8.61683 2.567 8.88875 2.54307 9.13683V10.835L4.37593 10.836C4.69537 10.8155 4.99267 10.6806 5.23135 10.4336L9.75549 6.3375L7.50927 4.30354ZM8.35572 3.53763L10.6013 5.57158L12.0334 4.27483C12.0852 4.22791 12.1142 4.1643 12.1142 4.09798C12.1142 4.03166 12.0852 3.96805 12.0334 3.92113L10.176 2.23979C10.1507 2.21668 10.1205 2.19834 10.0873 2.18583C10.0541 2.17331 10.0185 2.16687 9.98251 2.16687C9.94653 2.16687 9.91091 2.17331 9.8777 2.18583C9.84449 2.19834 9.81434 2.21668 9.78899 2.23979L8.35572 3.53763ZM9.9828 1.08333C10.3746 1.08333 10.7503 1.22471 11.0243 1.47496L12.8793 3.15467C13.016 3.2785 13.1245 3.42552 13.1986 3.58733C13.2726 3.74914 13.3107 3.92257 13.3107 4.09771C13.3107 4.27285 13.2726 4.44628 13.1986 4.60809C13.1245 4.76989 13.016 4.91691 12.8793 5.04075L6.10711 11.1713C5.68897 11.6074 5.09616 11.8755 4.41841 11.9178H1.34668V11.3761L1.34847 9.09296C1.39932 8.52204 1.69303 7.99067 2.13988 7.63371L8.94135 1.47604C9.07773 1.35174 9.23989 1.25306 9.41851 1.18567C9.59713 1.11827 9.7893 1.0835 9.9828 1.08333Z" fill="#808080"/>
</svg>
