<svg width="28" height="24" viewBox="0 0 28 24" fill="none" xmlns="http://www.w3.org/2000/svg">
<path d="M9.2377 17.5H6.3877C5.83541 17.5 5.3877 17.0523 5.3877 16.5V11.5C5.3877 10.9477 5.83541 10.5 6.3877 10.5H9.2377C9.32054 10.5 9.3877 10.5672 9.3877 10.65V17.35C9.3877 17.4328 9.32054 17.5 9.2377 17.5Z" stroke="white" stroke-linecap="round"/>
<path d="M9.3877 11.5L11.2821 7.71115C11.3516 7.57229 11.3877 7.41918 11.3877 7.26393V5.5C11.3877 4.94772 11.8354 4.5 12.3877 4.5V4.5C13.4923 4.5 14.3877 5.39543 14.3877 6.5V10.5" stroke="white" stroke-linecap="round"/>
<path d="M12.3877 10.5H18.3849C19.0514 10.5 19.5314 11.1397 19.345 11.7796L17.5975 17.7796C17.4732 18.2065 17.082 18.5 16.6374 18.5H12.8019C12.5367 18.5 12.2823 18.3946 12.0948 18.2071L11.6806 17.7929C11.4931 17.6054 11.2387 17.5 10.9735 17.5H9.3877" stroke="white" stroke-linecap="round"/>
</svg>
